<?xml version="1.0" encoding="utf-8"?>
<!-- Generator: Adobe Illustrator 18.0.0, SVG Export Plug-In . SVG Version: 6.00 Build 0)  -->
<!DOCTYPE svg PUBLIC "-//W3C//DTD SVG 1.1//EN" "http://www.w3.org/Graphics/SVG/1.1/DTD/svg11.dtd">
<svg version="1.1" id="Layer_1" xmlns="http://www.w3.org/2000/svg" xmlns:xlink="http://www.w3.org/1999/xlink" x="0px" y="0px"
	 viewBox="0 0 612 792" enable-background="new 0 0 612 792" xml:space="preserve">
<g>
	<path fill="#E6E7E8" d="M612,401.4H0.3v-24.7c0-3.4,2.8-6.2,6.2-6.2h599.2c3.4,0,6.2,2.8,6.2,6.2L612,401.4L612,401.4z"/>
	<g>
		<g>
			<path fill="#D0D2D3" d="M612,397.2v24.3H0v-24.3h51l2.1-11.4c0-3.1,2.5-5.5,5.5-5.5h130.2c3.1,0,5.5,2.5,5.5,5.5l2.1,11.4H612z
				 M549,401H63.3v17.1h485.6L549,401L549,401z"/>
			<g>
				<path fill="#D0D2D3" d="M18.1,386c0,2.7-2.1,4.8-4.8,4.8s-4.8-2.1-4.8-4.8c0-2.7,2.1-4.8,4.8-4.8C16,381.1,18.1,383.3,18.1,386z
					"/>
				<path fill="#D0D2D3" d="M31.8,386c0,2.7-2.1,4.8-4.8,4.8s-4.8-2.1-4.8-4.8c0-2.7,2.1-4.8,4.8-4.8
					C29.6,381.1,31.8,383.3,31.8,386z"/>
				<path fill="#D0D2D3" d="M45.5,386c0,2.7-2.1,4.8-4.8,4.8c-2.7,0-4.8-2.1-4.8-4.8c0-2.7,2.1-4.8,4.8-4.8
					C43.3,381.1,45.5,383.3,45.5,386z"/>
			</g>
		</g>
		<rect x="63.3" y="401" fill="#FFFFFF" width="485.6" height="17.1"/>
	</g>
</g>
</svg>
