<?xml version="1.0" encoding="utf-8"?>
<!-- Generator: Adobe Illustrator 18.0.0, SVG Export Plug-In . SVG Version: 6.00 Build 0)  -->
<!DOCTYPE svg PUBLIC "-//W3C//DTD SVG 1.1//EN" "http://www.w3.org/Graphics/SVG/1.1/DTD/svg11.dtd">
<svg version="1.1" id="Layer_1" xmlns="http://www.w3.org/2000/svg" xmlns:xlink="http://www.w3.org/1999/xlink" x="0px" y="0px"
	 viewBox="0 0 612 792" enable-background="new 0 0 612 792" xml:space="preserve">
<g>
	<path fill="#E6E7E8" d="M0.3,397v-20.3c0-3.4,2.8-6.2,6.2-6.2h599.2c3.4,0,6.2,2.8,6.2,6.2V397H0.3z"/>
	<g>
		<g>
			<g>
				<path fill="#D0D2D3" d="M18.1,384c0,2.7-2.1,4.8-4.8,4.8s-4.8-2.1-4.8-4.8c0-2.7,2.1-4.8,4.8-4.8C16,379.1,18.1,381.3,18.1,384z
					"/>
				<path fill="#D0D2D3" d="M31.8,384c0,2.7-2.1,4.8-4.8,4.8s-4.8-2.1-4.8-4.8c0-2.7,2.1-4.8,4.8-4.8
					C29.6,379.1,31.8,381.3,31.8,384z"/>
				<path fill="#D0D2D3" d="M45.5,384c0,2.7-2.1,4.8-4.8,4.8c-2.7,0-4.8-2.1-4.8-4.8c0-2.7,2.1-4.8,4.8-4.8
					C43.3,379.1,45.5,381.3,45.5,384z"/>
			</g>
		</g>
	</g>
</g>
</svg>
