<?xml version="1.0" encoding="utf-8"?>
<!-- Generator: Adobe Illustrator 17.1.0, SVG Export Plug-In . SVG Version: 6.00 Build 0)  -->
<!DOCTYPE svg PUBLIC "-//W3C//DTD SVG 1.1//EN" "http://www.w3.org/Graphics/SVG/1.1/DTD/svg11.dtd">
<svg version="1.1" id="Layer_1" xmlns="http://www.w3.org/2000/svg" xmlns:xlink="http://www.w3.org/1999/xlink" x="0px" y="0px"
	 viewBox="0 0 640 53.4" style="enable-background:new 0 0 640 53.4;" xml:space="preserve">
<style type="text/css">
	.st0{fill:#E6E7E8;}
	.st1{fill:#D0D2D3;}
	.st2{fill:#FFFFFF;}
</style>
<g>
	<path class="st0" d="M640,32.3H0.3V6.5C0.3,2.9,3.2,0,6.8,0h626.6c3.6,0,6.5,2.9,6.5,6.5V32.3z"/>
	<g>
		<g>
			<path class="st1" d="M640,28v25.4H0V28h53.3l2.2-11.9c0-3.2,2.6-5.7,5.7-5.7h136.2c3.2,0,5.7,2.6,5.7,5.7l2.2,11.9H640z
				 M574.1,31.9H66.2v17.9h507.8V31.9z"/>
			<g>
				<path class="st1" d="M18.9,16.2c0,2.8-2.2,5-5,5c-2.8,0-5-2.2-5-5c0-2.8,2.2-5,5-5C16.7,11.1,18.9,13.4,18.9,16.2z"/>
				<path class="st1" d="M33.3,16.2c0,2.8-2.2,5-5,5c-2.8,0-5-2.2-5-5c0-2.8,2.2-5,5-5C31,11.1,33.3,13.4,33.3,16.2z"/>
				<path class="st1" d="M47.6,16.2c0,2.8-2.2,5-5,5c-2.8,0-5-2.2-5-5c0-2.8,2.2-5,5-5C45.3,11.1,47.6,13.4,47.6,16.2z"/>
			</g>
		</g>
		<rect x="66.2" y="31.9" class="st2" width="507.8" height="17.9"/>
	</g>
</g>
</svg>
