<?xml version="1.0" encoding="utf-8"?>
<!-- Generator: Adobe Illustrator 17.1.0, SVG Export Plug-In . SVG Version: 6.00 Build 0)  -->
<!DOCTYPE svg PUBLIC "-//W3C//DTD SVG 1.1//EN" "http://www.w3.org/Graphics/SVG/1.1/DTD/svg11.dtd">
<svg version="1.1" id="Capa_1" xmlns="http://www.w3.org/2000/svg" xmlns:xlink="http://www.w3.org/1999/xlink" x="0px" y="0px"
	 viewBox="0 0 612 792" enable-background="new 0 0 612 792" xml:space="preserve">
<path opacity="0.72" fill="#FFFFFF" d="M541.9,279l-0.3-0.6c-8.9-15.3-28.4-20.5-43.7-11.6L306,377.9L114.1,266.8
	c-15.3-8.9-34.9-3.6-43.7,11.6l-0.3,0.6c-8.9,15.3-3.6,34.9,11.6,43.7l208.1,120.6c4.9,2.8,10.3,4.2,15.6,4.3c0.2,0,0.4,0,0.6,0
	s0.4,0,0.6,0c5.3-0.1,10.7-1.5,15.6-4.3l208.1-120.6C545.6,313.8,550.8,294.3,541.9,279z"/>
</svg>
