<?xml version="1.0" encoding="utf-8"?>
<!-- Generator: Adobe Illustrator 17.1.0, SVG Export Plug-In . SVG Version: 6.00 Build 0)  -->
<!DOCTYPE svg PUBLIC "-//W3C//DTD SVG 1.1//EN" "http://www.w3.org/Graphics/SVG/1.1/DTD/svg11.dtd">
<svg version="1.1" id="Layer_1" xmlns="http://www.w3.org/2000/svg" xmlns:xlink="http://www.w3.org/1999/xlink" x="0px" y="0px"
	 viewBox="0 0 640 39.8" style="enable-background:new 0 0 640 39.8;" xml:space="preserve">
<style type="text/css">
	.st0{fill:#E6E7E8;}
	.st1{fill:#D0D2D3;}
	.st2{fill:#FFFFFF;}
</style>
<g>
	<path class="st0" d="M640,24.1H0.2V4.9C0.2,2.2,2.4,0,5.1,0h630c2.7,0,4.9,2.2,4.9,4.9V24.1z"/>
	<g>
		<g>
			<path class="st1" d="M640,20.9v18.9H0V20.9h39.7l1.6-8.8c0-2.4,1.9-4.3,4.3-4.3h101.5c2.4,0,4.3,1.9,4.3,4.3l1.6,8.8H640z
				 M582.1,23.8H49.4v13.4h532.8V23.8z"/>
			<g>
				<circle class="st1" cx="10.4" cy="12" r="3.7"/>
				<path class="st1" d="M24.8,12c0,2.1-1.7,3.7-3.7,3.7c-2.1,0-3.7-1.7-3.7-3.7c0-2.1,1.7-3.7,3.7-3.7C23.1,8.3,24.8,10,24.8,12z"
					/>
				<circle class="st1" cx="31.7" cy="12" r="3.7"/>
			</g>
		</g>
		<rect x="49.4" y="23.8" class="st2" width="532.8" height="13.4"/>
	</g>
</g>
</svg>
