<?xml version="1.0" encoding="utf-8"?>
<!-- Generator: Adobe Illustrator 16.2.1, SVG Export Plug-In . SVG Version: 6.00 Build 0)  -->
<!DOCTYPE svg PUBLIC "-//W3C//DTD SVG 1.1//EN" "http://www.w3.org/Graphics/SVG/1.1/DTD/svg11.dtd">
<svg version="1.1" id="Layer_1" xmlns="http://www.w3.org/2000/svg" xmlns:xlink="http://www.w3.org/1999/xlink" x="0px" y="0px"
	 width="120px" height="120px" viewBox="0 0 120 120" enable-background="new 0 0 120 120" xml:space="preserve">
<path fill="#FFFFFF" d="M117.6,49.1c0-2.8-2.3-5-5-5c-1.8,0-3,1-4.3,2.4L89.2,67.2C93,60,87.3,57,87.3,57S72.2,47,64.5,42.7
	c-7.7-4.3-12.8,1.8-12.8,1.8L38.7,60c-1.9,2.3-5-5.7-9.5-13.5S12.5,32,6.8,36.4c-5.7,4.4,6.2,8.5,12.3,22.2
	c6.1,13.7,6.7,21,10.7,27.7s3.7,15.8,1.3,20.7s-8,13-8,13h44.3c-0.101-4.3,5.399-9.3,10.199-12.5c4.801-3.2,7.2-7,11.4-16.7
	s10.2-16.7,10.2-16.7L116,52.7C117,51.4,117.6,50.5,117.6,49.1z"/>
</svg>
