<?xml version="1.0" encoding="utf-8"?>
<!-- Generator: Adobe Illustrator 17.1.0, SVG Export Plug-In . SVG Version: 6.00 Build 0)  -->
<!DOCTYPE svg PUBLIC "-//W3C//DTD SVG 1.1//EN" "http://www.w3.org/Graphics/SVG/1.1/DTD/svg11.dtd">
<svg version="1.1" id="Capa_1" xmlns="http://www.w3.org/2000/svg" xmlns:xlink="http://www.w3.org/1999/xlink" x="0px" y="0px"
	 viewBox="0 0 216 146" enable-background="new 0 0 216 146" xml:space="preserve">
<path fill="#FFFFFF" d="M168.5,42.1l-6.1-6.1c-2.1-2-4.6-3-7.4-3c-2.9,0-5.3,1-7.3,3L108,75.6L68.4,36c-2-2-4.5-3-7.3-3
	c-2.8,0-5.3,1-7.4,3l-6,6.1c-2.1,2.1-3.1,4.5-3.1,7.4c0,2.9,1,5.4,3.1,7.3l53,53c2,2.1,4.4,3.1,7.3,3.1c2.9,0,5.3-1,7.4-3.1l53-53
	c2-2,3-4.5,3-7.3C171.5,46.7,170.5,44.2,168.5,42.1z"/>
</svg>
