<?xml version="1.0" encoding="utf-8"?>
<!-- Generator: Adobe Illustrator 16.2.1, SVG Export Plug-In . SVG Version: 6.00 Build 0)  -->
<!DOCTYPE svg PUBLIC "-//W3C//DTD SVG 1.1//EN" "http://www.w3.org/Graphics/SVG/1.1/DTD/svg11.dtd">
<svg version="1.1" id="Layer_1" xmlns="http://www.w3.org/2000/svg" xmlns:xlink="http://www.w3.org/1999/xlink" x="0px" y="0px"
	 width="1470.4px" height="810.7px" viewBox="0 0 1470.4 810.7" enable-background="new 0 0 1470.4 810.7" xml:space="preserve">
<g id="iPhone">
	<path fill="#282828" d="M1330.7,36C1388.1,36,1434.6,82.5,1434.6,139.9v530.899c0,57.4-46.5,103.9-103.899,103.9H139.9
		c-57.4,0-103.9-46.5-103.9-103.9V139.9C36,82.5,82.5,36,139.9,36H1330.7z M186.1,332.3c-5.3,0-9.6,4.3-9.6,9.6v126.899
		c0,5.301,4.3,9.602,9.6,9.602l0,0c5.3,0,9.6-4.301,9.6-9.602V341.9C195.7,336.6,191.4,332.3,186.1,332.3L186.1,332.3z M102.7,405.4
		c0,9.899,8,18,18,18c9.9,0,18-8,18-18c0-9.9-8-18-18-18S102.7,395.4,102.7,405.4z M175.8,508c0,5.699,4.6,10.299,10.3,10.299
		c5.7,0,10.3-4.6,10.3-10.299c0-5.701-4.6-10.301-10.3-10.301C180.4,497.7,175.8,502.299,175.8,508z M1249.9,405.4
		c0,38.2,31,69.299,69.3,69.299s69.3-31,69.3-69.299c0-38.3-31-69.3-69.3-69.3S1249.9,367.1,1249.9,405.4z"/>
	<path fill="#282828" d="M1335.6,381.3c3.7,0,6.601,3,6.601,6.6v32.899c0,3.701-3,6.602-6.601,6.602H1302.7
		c-3.7,0-6.601-3-6.601-6.602V387.9c0-3.7,3-6.6,6.601-6.6H1335.6z"/>
	<path fill="#282828" d="M1319.1,340.9c35,0,63.5,28.4,63.5,63.5c0,35-28.399,63.5-63.5,63.5c-35,0-63.5-28.4-63.5-63.5
		C1255.7,369.3,1284.1,340.9,1319.1,340.9z M1298.2,375.1c-4.601,0-8.4,3.8-8.4,8.4v41.799c0,4.701,3.8,8.4,8.4,8.4h41.8
		c4.6,0,8.4-3.799,8.4-8.4V383.5c0-4.6-3.801-8.4-8.4-8.4H1298.2z"/>
</g>
<g id="Screen">
</g>
<g id="Top_Screen" display="none">
	
		<rect x="694.7" y="343.4" display="inline" fill="none" stroke="#FFFFFF" stroke-width="0.25" stroke-miterlimit="10" width="83.2" height="124.399"/>
</g>
</svg>
