<?xml version="1.0" encoding="utf-8"?>
<!-- Generator: Adobe Illustrator 16.2.1, SVG Export Plug-In . SVG Version: 6.00 Build 0)  -->
<!DOCTYPE svg PUBLIC "-//W3C//DTD SVG 1.1//EN" "http://www.w3.org/Graphics/SVG/1.1/DTD/svg11.dtd">
<svg version="1.1" id="Layer_1" xmlns="http://www.w3.org/2000/svg" xmlns:xlink="http://www.w3.org/1999/xlink" x="0px" y="0px"
	 width="810.6px" height="1470.6px" viewBox="0 0 810.6 1470.6" enable-background="new 0 0 810.6 1470.6" xml:space="preserve">
<g id="iPhone">
	<path fill="#282828" d="M774.8,1330.7c0,57.399-46.5,103.899-103.899,103.899H140c-57.4,0-103.9-46.5-103.9-103.899V139.9
		C36.1,82.5,82.6,36,140,36h530.9C728.3,36,774.8,82.5,774.8,139.9V1330.7L774.8,1330.7z M478.5,186.1c0-5.3-4.3-9.6-9.6-9.6H342
		c-5.3,0-9.6,4.3-9.6,9.6l0,0c0,5.3,4.3,9.6,9.6,9.6h126.9C474.2,195.7,478.5,191.4,478.5,186.1L478.5,186.1z M405.4,102.7
		c-9.9,0-18,8-18,18c0,9.9,8,18,18,18c9.899,0,18-8,18-18S415.4,102.7,405.4,102.7z M302.8,175.8c-5.7,0-10.3,4.6-10.3,10.3
		c0,5.7,4.6,10.3,10.3,10.3c5.7,0,10.3-4.6,10.3-10.3C313.1,180.4,308.5,175.8,302.8,175.8z M405.4,1249.9
		c-38.2,0-69.301,31-69.301,69.3s31,69.3,69.301,69.3c38.3,0,69.3-31,69.3-69.3S443.7,1249.9,405.4,1249.9z"/>
	<path fill="#282828" d="M429.5,1335.6c0,3.7-3,6.601-6.6,6.601H390c-3.7,0-6.6-3-6.6-6.601V1302.7c0-3.7,3-6.601,6.6-6.601h32.9
		c3.699,0,6.6,3,6.6,6.601V1335.6z"/>
	<path fill="#282828" d="M469.9,1319.1c0,35-28.4,63.5-63.5,63.5c-35,0-63.5-28.399-63.5-63.5c0-35,28.399-63.5,63.5-63.5
		C441.5,1255.7,469.9,1284.1,469.9,1319.1z M435.7,1298.2c0-4.601-3.8-8.4-8.4-8.4h-41.8c-4.7,0-8.4,3.8-8.4,8.4v41.8
		c0,4.6,3.801,8.4,8.4,8.4h41.8c4.601,0,8.4-3.801,8.4-8.4V1298.2z"/>
</g>
<g id="Screen">
</g>
<g id="Top_Screen" display="none">
	
		<rect x="346.9" y="655.4" display="inline" fill="none" stroke="#FFFFFF" stroke-width="0.25" stroke-miterlimit="10" width="83.199" height="124.399"/>
</g>
</svg>
