<?xml version="1.0" encoding="utf-8"?>
<!-- Generator: Adobe Illustrator 16.2.1, SVG Export Plug-In . SVG Version: 6.00 Build 0)  -->
<!DOCTYPE svg PUBLIC "-//W3C//DTD SVG 1.1//EN" "http://www.w3.org/Graphics/SVG/1.1/DTD/svg11.dtd">
<svg version="1.1" xmlns="http://www.w3.org/2000/svg" xmlns:xlink="http://www.w3.org/1999/xlink" x="0px" y="0px" width="810.6px"
	 height="1470.6px" viewBox="0 0 810.6 1470.6" style="enable-background:new 0 0 810.6 1470.6;" xml:space="preserve">
<style type="text/css">
<![CDATA[
	.st0{fill:#282828;}
	.st1{display:inline;fill:none;stroke:#FFFFFF;stroke-width:0.25;stroke-miterlimit:10;}
	.st2{display:none;}
]]>
</style>
<g id="iPhone">
	<path class="st0" d="M774.8,1330.7c0,57.4-46.5,103.9-103.9,103.9H140c-57.4,0-103.9-46.5-103.9-103.9V139.9
		C36.1,82.5,82.6,36,140,36h530.9c57.4,0,103.9,46.5,103.9,103.9V1330.7z M725.4,258.3h-640v957h640V258.3z M478.5,186.1
		c0-5.3-4.3-9.6-9.6-9.6H342c-5.3,0-9.6,4.3-9.6,9.6l0,0c0,5.3,4.3,9.6,9.6,9.6h126.9C474.2,195.7,478.5,191.4,478.5,186.1
		L478.5,186.1z M405.4,102.7c-9.9,0-18,8-18,18c0,9.9,8,18,18,18c9.9,0,18-8,18-18C423.4,110.7,415.4,102.7,405.4,102.7z
		 M302.8,175.8c-5.7,0-10.3,4.6-10.3,10.3c0,5.7,4.6,10.3,10.3,10.3c5.7,0,10.3-4.6,10.3-10.3C313.1,180.4,308.5,175.8,302.8,175.8z
		 M405.4,1249.9c-38.2,0-69.3,31-69.3,69.3s31,69.3,69.3,69.3s69.3-31,69.3-69.3S443.7,1249.9,405.4,1249.9z"/>
	<path class="st0" d="M429.5,1335.6c0,3.7-3,6.6-6.6,6.6H390c-3.7,0-6.6-3-6.6-6.6v-32.9c0-3.7,3-6.6,6.6-6.6h32.9
		c3.7,0,6.6,3,6.6,6.6V1335.6z"/>
	<path class="st0" d="M469.9,1319.1c0,35-28.4,63.5-63.5,63.5c-35,0-63.5-28.4-63.5-63.5c0-35,28.4-63.5,63.5-63.5
		C441.5,1255.7,469.9,1284.1,469.9,1319.1z M435.7,1298.2c0-4.6-3.8-8.4-8.4-8.4h-41.8c-4.7,0-8.4,3.8-8.4,8.4v41.8
		c0,4.6,3.8,8.4,8.4,8.4h41.8c4.6,0,8.4-3.8,8.4-8.4V1298.2z"/>
</g>
<g id="Screen">
</g>
<g id="Top_Screen" class="st2">
	<rect x="346.9" y="655.4" class="st1" width="83.2" height="124.4"/>
</g>
</svg>
